<svg xmlns="http://www.w3.org/2000/svg" viewBox="0 0 24 24"><title>Asset 1</title><g id="Layer_2" data-name="Layer 2"><g id="Layer_1-2" data-name="Layer 1"><path d="M7,2A1.11,1.11,0,0,1,8.11,3.11a12.63,12.63,0,0,0,.63,4,1.1,1.1,0,0,1-.27,1.13L6,10.66A16.8,16.8,0,0,0,13.34,18l2.45-2.45a1.1,1.1,0,0,1,.78-.32,1,1,0,0,1,.35.06,12.92,12.92,0,0,0,4,.63A1.12,1.12,0,0,1,22,17v3.88A1.11,1.11,0,0,1,20.9,22h0A18.89,18.89,0,0,1,2,3.11H2A1.11,1.11,0,0,1,3.11,2H7M7,0H3.11A3.12,3.12,0,0,0,0,3.11,20.91,20.91,0,0,0,20.89,24,3.12,3.12,0,0,0,24,20.89V17a3.12,3.12,0,0,0-3.11-3.11,10.85,10.85,0,0,1-3.34-.53,2.83,2.83,0,0,0-1-.16,3.13,3.13,0,0,0-2.2.91L13,15.48A15,15,0,0,1,8.52,11L9.88,9.64a3.11,3.11,0,0,0,.77-3.15,10.75,10.75,0,0,1-.54-3.37A3.11,3.11,0,0,0,7,0Z"/></g></g></svg>